<mxfile host="app.diagrams.net" agent="Mozilla/5.0 (Windows NT 10.0; Win64; x64) AppleWebKit/537.36 (KHTML, like Gecko) Chrome/131.0.0.0 Safari/537.36 Edg/131.0.0.0" version="25.0.3">
  <diagram name="Page-1" id="ubqL9lIWW5M5NBGkmcGC">
    <mxGraphModel dx="1042" dy="535" grid="1" gridSize="10" guides="1" tooltips="1" connect="1" arrows="1" fold="1" page="1" pageScale="1" pageWidth="850" pageHeight="1100" math="0" shadow="0">
      <root>
        <mxCell id="0" />
        <mxCell id="1" parent="0" />
        <mxCell id="E1y7nbciRYTPnb4uHfA7-1" value="" style="ellipse;whiteSpace=wrap;html=1;fillColor=#000000;" vertex="1" parent="1">
          <mxGeometry x="190" width="120" height="80" as="geometry" />
        </mxCell>
        <mxCell id="E1y7nbciRYTPnb4uHfA7-2" value="Start" style="text;strokeColor=none;align=center;fillColor=none;html=1;verticalAlign=middle;whiteSpace=wrap;rounded=0;fontColor=#FFFFFF;" vertex="1" parent="1">
          <mxGeometry x="220" y="25" width="60" height="30" as="geometry" />
        </mxCell>
        <mxCell id="E1y7nbciRYTPnb4uHfA7-3" value="" style="ellipse;whiteSpace=wrap;html=1;fillColor=#000000;" vertex="1" parent="1">
          <mxGeometry x="190" y="500" width="120" height="80" as="geometry" />
        </mxCell>
        <mxCell id="E1y7nbciRYTPnb4uHfA7-4" value="End" style="text;strokeColor=none;align=center;fillColor=none;html=1;verticalAlign=middle;whiteSpace=wrap;rounded=0;fontColor=#FFFFFF;" vertex="1" parent="1">
          <mxGeometry x="220" y="525" width="60" height="30" as="geometry" />
        </mxCell>
        <mxCell id="E1y7nbciRYTPnb4uHfA7-5" value="" style="shape=parallelogram;perimeter=parallelogramPerimeter;whiteSpace=wrap;html=1;fixedSize=1;fontColor=#FFFFFF;fillColor=#000033;" vertex="1" parent="1">
          <mxGeometry x="190" y="110" width="120" height="60" as="geometry" />
        </mxCell>
        <mxCell id="E1y7nbciRYTPnb4uHfA7-6" value="Nháº­p a, b&amp;nbsp;" style="text;strokeColor=none;align=center;fillColor=none;html=1;verticalAlign=middle;whiteSpace=wrap;rounded=0;fontColor=#FFFFFF;" vertex="1" parent="1">
          <mxGeometry x="220" y="125" width="60" height="30" as="geometry" />
        </mxCell>
        <mxCell id="E1y7nbciRYTPnb4uHfA7-13" value="" style="rounded=0;whiteSpace=wrap;html=1;fillColor=#000033;" vertex="1" parent="1">
          <mxGeometry x="190" y="210" width="150" height="40" as="geometry" />
        </mxCell>
        <mxCell id="E1y7nbciRYTPnb4uHfA7-14" value="for( int i = min(a,b); i&amp;lt;0; i--)" style="text;strokeColor=none;align=center;fillColor=none;html=1;verticalAlign=middle;whiteSpace=wrap;rounded=0;fontColor=#FFFFFF;" vertex="1" parent="1">
          <mxGeometry x="190" y="210" width="150" height="30" as="geometry" />
        </mxCell>
        <mxCell id="E1y7nbciRYTPnb4uHfA7-22" style="edgeStyle=orthogonalEdgeStyle;rounded=0;orthogonalLoop=1;jettySize=auto;html=1;entryX=0.5;entryY=0;entryDx=0;entryDy=0;" edge="1" parent="1" source="E1y7nbciRYTPnb4uHfA7-15" target="E1y7nbciRYTPnb4uHfA7-18">
          <mxGeometry relative="1" as="geometry" />
        </mxCell>
        <mxCell id="E1y7nbciRYTPnb4uHfA7-15" value="" style="strokeWidth=2;html=1;shape=mxgraph.flowchart.decision;whiteSpace=wrap;fillColor=#000033;" vertex="1" parent="1">
          <mxGeometry x="130" y="290" width="250" height="100" as="geometry" />
        </mxCell>
        <mxCell id="E1y7nbciRYTPnb4uHfA7-16" value="if(&lt;code style=&quot;font-size: 15px; border-radius: 0px; background: transparent; padding: 0px; text-align: left; white-space: pre; font-family: Consolas, &amp;quot;Bitstream Vera Sans Mono&amp;quot;, &amp;quot;Courier New&amp;quot;, Courier, monospace !important; border: 0px !important; inset: auto !important; float: none !important; height: auto !important; line-height: 1.4em !important; margin: 0px !important; outline: 0px !important; overflow: visible !important; position: static !important; vertical-align: baseline !important; width: auto !important; box-sizing: content-box !important; min-height: auto !important;&quot; class=&quot;cpp plain&quot;&gt;A % i == 0 &amp;amp;&amp;amp; B % i ==0)&lt;/code&gt;" style="text;strokeColor=none;align=center;fillColor=none;html=1;verticalAlign=middle;whiteSpace=wrap;rounded=0;fontColor=#FFFFFF;" vertex="1" parent="1">
          <mxGeometry x="200" y="325" width="100" height="30" as="geometry" />
        </mxCell>
        <mxCell id="E1y7nbciRYTPnb4uHfA7-17" value="" style="rounded=0;whiteSpace=wrap;html=1;fillColor=#000033;" vertex="1" parent="1">
          <mxGeometry x="180" y="430" width="150" height="40" as="geometry" />
        </mxCell>
        <mxCell id="E1y7nbciRYTPnb4uHfA7-18" value="In i" style="text;strokeColor=none;align=center;fillColor=none;html=1;verticalAlign=middle;whiteSpace=wrap;rounded=0;fontColor=#FFFFFF;" vertex="1" parent="1">
          <mxGeometry x="180" y="430" width="150" height="30" as="geometry" />
        </mxCell>
        <mxCell id="E1y7nbciRYTPnb4uHfA7-19" value="" style="endArrow=none;html=1;rounded=0;entryX=0.5;entryY=1;entryDx=0;entryDy=0;" edge="1" parent="1" source="E1y7nbciRYTPnb4uHfA7-5" target="E1y7nbciRYTPnb4uHfA7-1">
          <mxGeometry width="50" height="50" relative="1" as="geometry">
            <mxPoint x="400" y="310" as="sourcePoint" />
            <mxPoint x="450" y="260" as="targetPoint" />
          </mxGeometry>
        </mxCell>
        <mxCell id="E1y7nbciRYTPnb4uHfA7-20" style="edgeStyle=orthogonalEdgeStyle;rounded=0;orthogonalLoop=1;jettySize=auto;html=1;entryX=0.4;entryY=0.333;entryDx=0;entryDy=0;entryPerimeter=0;" edge="1" parent="1" source="E1y7nbciRYTPnb4uHfA7-6" target="E1y7nbciRYTPnb4uHfA7-14">
          <mxGeometry relative="1" as="geometry" />
        </mxCell>
        <mxCell id="E1y7nbciRYTPnb4uHfA7-21" style="edgeStyle=orthogonalEdgeStyle;rounded=0;orthogonalLoop=1;jettySize=auto;html=1;entryX=0.541;entryY=0.088;entryDx=0;entryDy=0;entryPerimeter=0;" edge="1" parent="1" source="E1y7nbciRYTPnb4uHfA7-13" target="E1y7nbciRYTPnb4uHfA7-15">
          <mxGeometry relative="1" as="geometry" />
        </mxCell>
        <mxCell id="E1y7nbciRYTPnb4uHfA7-23" style="edgeStyle=orthogonalEdgeStyle;rounded=0;orthogonalLoop=1;jettySize=auto;html=1;entryX=0.587;entryY=0.045;entryDx=0;entryDy=0;entryPerimeter=0;" edge="1" parent="1" source="E1y7nbciRYTPnb4uHfA7-18" target="E1y7nbciRYTPnb4uHfA7-3">
          <mxGeometry relative="1" as="geometry" />
        </mxCell>
      </root>
    </mxGraphModel>
  </diagram>
</mxfile>
